<svg width="148" height="78" viewBox="0 0 148 78" fill="none" xmlns="http://www.w3.org/2000/svg">
<g filter="url(#filter0_d_106965_140)">
<g clip-path="url(#clip0_106965_140)">
<path d="M144 0H4L64.3623 65.7C69.6377 71.5 78.3623 71.5 83.6377 65.7L144 0Z" fill="#81B3D3"/>
<path d="M41.2318 0.5L73.797 38.4L106.261 0.7L41.2318 0.5Z" fill="#23A9E1"/>
<path d="M65.9856 14.7H83.5363C82.2175 13.9 79.0725 10.1 77.4494 11.5C77.3479 11.6 72.4783 5.80001 69.3334 8.60001C66.5943 11.1 65.2754 8.30001 62.232 10.2C58.5798 12.6 64.2609 13.9 65.9856 14.7ZM93.0725 11.2L83.1305 11.3C87.087 6.80001 88.8117 7.30001 93.0725 11.2Z" fill="white"/>
<path d="M103.014 3.6V1.2H105.145L103.014 3.6ZM53.1014 13C53.2029 13.1 55.5362 10.6 59.2898 8.1C62.7391 5.8 68.0145 3.2 73.8985 3.2C79.7826 3.2 85.1594 5.9 88.6087 8.2C92.3623 10.6 94.6956 13 94.7971 13.1L92.2609 16.1C87.6956 16.7 84.4493 20 79.9855 19.3C77.7536 18.9 77.6522 17.7 77.0435 16.4C76.5362 15.4 75.7246 15.6 74.7101 15.2C73.7971 14.8 73.1884 14.1 71.2609 14.5C69.6377 14.9 69.4348 17.4 67.3043 17.3C66.1884 17.2 66.0869 15.7 64.4638 13.7C60.3043 8.8 56.5107 9.41045 53.873 13.9104L53.1014 13ZM44.5797 1.2V3.1L42.9565 1.2H44.5797ZM99.2609 1.2H102.507V4.2L99.2609 8V1.2ZM95.1014 12.6V1.2H98.6522V8.6L95.1014 12.6ZM94.5942 2.2V12.1C93.4783 11 92.2609 10 90.942 9.1L94.5942 2.2ZM90.4348 1.9V8.7C89.9275 8.4 89.5217 8 88.913 7.7C88.2029 7.3 87.4927 6.8 86.6812 6.4L90.4348 1.9ZM85.971 1.7V6C84.9565 5.5 83.8406 5 82.8261 4.5L85.971 1.7ZM86.5797 1.2H90.3333L86.5797 5.8V1.2ZM90.942 1.2H94.5942L90.942 8.3V1.2ZM82.0145 1.2H85.971L82.4203 4.3C82.3188 4.3 82.2174 4.2 82.1159 4.2L82.0145 1.2ZM81.5072 1.6V4C80.4927 3.6 79.4783 3.3 78.3623 3.1L81.5072 1.6ZM77.2464 1.6V2.9C76.5362 2.8 75.8261 2.7 75.0145 2.6L77.2464 1.6ZM70.3478 1.6L72.5797 2.6C71.7681 2.6 71.058 2.7 70.3478 2.9V1.6ZM66.1884 1.6L69.3333 3.1C68.2174 3.3 67.2029 3.6 66.1884 4V1.6ZM69.8406 2.8L66.4927 1.2H69.8406V2.8ZM73.3913 2.4L70.5507 1.1H73.3913V2.4ZM74.1014 1.2H77.0435L74.1014 2.5V1.2ZM77.8551 1.2H81.1014L77.8551 2.8V1.2ZM65.2754 4.3L61.7246 1.2H65.6812V4.2L65.2754 4.3ZM61.6232 1.7L64.7681 4.4C63.6522 4.8 62.6377 5.3 61.6232 5.9V1.7ZM57.2609 1.9L60.913 6.4C59.5942 7.1 58.3768 7.9 57.2609 8.8V1.9ZM53 2.2L56.6522 9.2C55.3333 10.2 54.1159 11.2 53 12.4V2.2ZM56.7536 8.2L53.1014 1.1H56.7536V8.2ZM61.1159 5.7L57.3623 1.1H61.1159V5.7ZM48.3333 7.5L45.0869 3.7V1.2H48.3333V7.5ZM48.942 1.2H52.4927V12.4L48.942 8.2V1.2ZM40.5217 0V14.6L74 54.5L107.478 15V0H40.5217Z" fill="#491213"/>
<path d="M71.3623 46L74 41.8L76.6376 46L74 50.2L71.3623 46Z" fill="#23A9E1"/>
<path d="M79.2753 30.6C75.826 28.6 76.6376 27.1 79.4782 25.7C80.9999 25 84.3478 22.3 85.6666 23.2L79.2753 30.6ZM76.942 33.1C74.913 33 72.5796 32.7 70.5507 33.2C71.768 33.5 74.8115 34.4 71.9709 35.1C72.9854 36.5 74.6086 36.4 75.6231 35.2C75.2173 35 74.913 34.7 74.6086 34.5C75.7246 34.2 76.7391 33.6 76.942 33.1ZM78.1593 31.5C77.2463 30.7 76.2318 30.7 75.4202 31.5C74.2028 29.4 69.942 30.1 67.913 29.8C69.0289 32.4 77.6521 32.9 78.1593 31.5ZM71.2608 29.3C69.6376 28.8 64.3622 28.9 67.8115 27.5C68.9275 27.1 74.6086 27.6 71.2608 29.3ZM73.2898 26.3C72.7825 25.2 73.6956 23.9 75.0144 24.9C76.2318 25.7 74.4057 26.9 73.2898 26.3ZM70.3478 26.4C68.0144 27.1 64.9709 25.6 68.7246 24.9C71.0579 24.4 73.4927 25.4 70.3478 26.4C70.4492 26.4 70.2463 26.4 70.3478 26.4ZM67.7101 20.2C67.2028 21.8 66.1883 22.1 66.2898 20.2C66.3912 17.9 67.913 18.5 69.5362 17.6C70.855 16.9 71.5651 14.2 73.8985 15.8C74.913 16.5 76.1304 15.9 76.4347 17C76.4347 16.9 73.4927 23.7 75.1159 23.7C71.8695 23.7 73.2898 19.9 74.5072 17.3C73.2898 17.9 71.3622 21.6 72.9854 22.3C72.1738 23.4 69.5362 24.9 68.2173 23.8C67.1014 22.8 67.7101 21.5 67.7101 20.2ZM63.6521 23C57.9709 23 61.826 14.4 63.7536 14.9C65.9854 15.6 65.6811 23.1 63.6521 23ZM57.3622 14.8C54.7246 14.7 55.8405 12.2 57.6666 11.7C59.3912 11.2 62.942 12.8 64.1593 13.9C62.3333 14.5 59.9999 14.4 57.9709 14.5C57.768 12.5 57.2608 13.2 57.3622 14.8Z" fill="#DC6243"/>
<path d="M76.8406 25.8C73.8986 22.8 81.203 23.1 82.4203 22C83.2319 22.3 89.5218 16.6 91.0435 17C89.9276 18.3 87.5943 22.3 85.9711 22.3C84.6522 22.3 83.3334 22.1 82.3189 23C80.7971 24.4 78.3624 25.1 76.8406 25.8Z" fill="#F49774"/>
<path d="M77.7537 22.2C76.1305 23.1 74.6088 19.7 77.4494 20C79.2754 20.2 81.203 19.8 82.9276 20.1C81.6088 21.6 79.7827 22.4 77.7537 22.2Z" fill="#F4B1A4"/>
<path d="M55.8406 20.9C56.145 21.3 56.4493 21.7 56.3479 22.3C56.3479 22.7 55.7392 23.3 56.145 23.5L57.6667 21.7C57.2609 21.6 54.116 17.9 54.116 17.5L51.9856 18.6C52.087 19 52.7971 18.6 53.2029 18.6C53.7102 18.6 54.116 19 54.5218 19.3C53.4058 20.2 50.6667 22.6 50.3624 22.6C50.2609 22.6 49.6522 22.2 49.6522 22.6C49.6522 22.8 50.2609 23.3 50.3624 23.4L51.7827 25.1C52.1885 24.9 51.6812 24.6 51.8841 24.3C51.9856 24.1 55.1305 21.6 55.8406 20.9ZM52.3914 16.4C52.6957 16.3 52.7971 16.7 53 16.4L51.3769 14.5C51.174 14.2 50.8696 13.9 50.8696 14.5C50.9711 14.9 46.8116 18.2 46.6087 18.3C46.3044 18.4 46.1015 18 45.8986 18.4C46.4058 19 46.8116 19.5 47.3189 20.1C47.5218 20.3 47.6232 20.5 47.8261 20.7C48.029 20.9 47.9276 20.3 47.9276 20.3C47.8261 20 48.2319 19.7 48.5363 19.5C49.5508 18.5 52.087 16.4 52.3914 16.4ZM46.6087 15.8C45.4928 16.1 44.174 15.7 43.8696 14.5C43.4638 13.3 44.2754 12.1 45.1884 11.4C46.1015 10.7 47.5218 10.8 48.029 11.9C48.2319 12.4 48.1305 13 47.9276 13.5C47.8261 13.8 47.5218 14.1 47.9276 14.3C48.5363 13.6 49.0435 12.9 49.6522 12.2C48.9421 11.8 48.6377 11.1 48.1305 10.5C47.5218 9.79999 46.8116 9.09999 45.7971 8.99999C43.8696 8.69999 42.145 10.7 41.9421 12.4C41.8406 13.3 42.145 14.2 42.7537 15C43.2609 15.6 43.9711 16.1 44.3769 16.8C44.5798 16.9 46.2029 16.1 46.5073 16C46.7102 16 46.6087 15.9 46.6087 15.8C46.6087 15.8 46.1015 16 46.6087 15.8ZM72.4783 39.4C71.7682 38.9 69.8406 36.4 69.4348 35.9L69.2319 35.6L69.029 35.7C68.9276 35.8 69.1305 36.1 69.029 36.3C68.5218 37.1 65.2754 39.5 65.0725 39.7C64.6667 39.9 64.2609 39.6 64.058 39.9C64.5653 40.5 65.8841 42.2 66.087 42.2C66.3913 42.2 66.1884 41.7 66.1884 41.6C66.2899 41.4 67.9131 40 68.5218 39.5C68.7247 39.3 68.9276 39.8 69.1305 40C69.3334 40.3 69.4348 40.7 69.3334 41C69.2319 41.2 68.8261 41.6 69.1305 41.8C69.5363 41.3 70.6522 40 70.8551 39.8C71.058 39.6 70.4493 39.8 70.5508 39.7C70.3479 39.8 70.0435 39.9 69.8406 39.7C69.7392 39.7 69.1305 39 69.2319 38.9C69.5363 38.7 69.8406 38.3 70.2464 38.2C70.8551 38.1 71.2609 39.2 71.3624 39.6C71.4638 40 71.4638 40.4 71.2609 40.7C71.1595 41 70.9566 41.2 71.2609 41.3L72.6812 39.4C72.6812 39.5 72.5798 39.5 72.4783 39.4C72.5798 39.5 72.3769 39.4 72.4783 39.4ZM63.145 30.5C62.4348 30.5 61.7247 30.8 61.116 31.3C59.6957 32.5 59.4928 34.6 60.6087 36.1C61.9276 37.8 64.058 38 65.7827 36.8C67.2029 35.6 67.4058 33.5 66.2899 32C65.4783 31 64.2609 30.5 63.145 30.5ZM64.3624 31.9C65.2754 31.8 65.8841 32.7 65.4783 33.7C65.0725 34.7 64.058 35.7 63.0435 36.1C61.8261 36.6 61.0145 35.6 61.5218 34.4C61.9276 33.4 62.9421 32.4 63.9566 32C64.058 32 64.1595 31.9 64.3624 31.9ZM61.5218 27.3C61.8261 27.3 62.1305 27.7 62.3334 27.3L60.9131 25.6C60.5073 25.8 60.9131 26 60.8116 26.2C60.6087 26.5 59.087 26.7 58.6812 26.8C58.7827 26.4 59.2899 25.1 59.4928 25C59.8986 24.7 60.1015 25.3 60.3044 24.9L58.4783 22.8C58.2754 22.6 58.0725 22.1 57.8696 22.4C57.8696 22.4 57.8696 23.4 57.7682 23.5C57.6667 23.7 57.1595 25.9 56.5508 26.4C56.2464 26.7 55.029 27.7 54.7247 27.8C54.4203 27.9 54.2174 27.4 53.9131 27.8L55.5363 29.7C55.6377 29.8 55.9421 30.3 56.0435 30.3C56.3479 30.4 56.0435 29.7 56.145 29.6C56.2464 29.3 57.7682 27.8 58.4783 27.7C59.3913 27.5 60.5073 27.2 61.5218 27.3C61.7247 27.3 61.3189 27.3 61.5218 27.3ZM86.0725 34C86.174 34.4 86.2754 34.9 86.174 35.3C86.0725 35.9 85.5653 37.2 84.7537 36.8C83.9421 36.4 83.3334 35.7 82.6232 35.1C83.1305 34.5 83.6377 34 84.5508 34.3C84.7537 34.4 84.9566 34.3 84.7537 34.1C84.4493 33.9 82.7247 32.8 82.6232 32.9C82.4203 33.1 82.9276 33.5 82.7247 33.9C82.6232 34.2 82.3189 34.4 82.116 34.7C81.6087 34.3 80.8986 33.9 81.4058 33.2C81.8116 32.8 82.2174 32.4 82.8261 32.3C83.2319 32.2 84.0435 32.6 84.145 32.2C83.4348 31.9 82.7247 31.5 82.0145 31.2C82.116 31.7 79.7827 34.1 79.2754 34.7C79.174 34.8 78.8696 35.1 78.8696 35.2C78.8696 35.5 79.2754 35.3 79.2754 35.3C79.5798 35.2 83.7392 38.6 83.8406 38.9C83.9421 39.1 83.7392 39.3 83.8406 39.4C83.8406 39.4 83.9421 39.5 84.0435 39.5C84.3479 39.2 86.9856 35.6 87.5942 35.5C87.087 34.7 86.5798 33.9 86.0725 33.1C85.6667 33.3 85.9711 33.8 86.0725 34ZM82.0145 38.4C80.6957 37.5 78.3624 39.2 77.9566 39.4C77.2464 39.7 76.7392 39 77.145 38.4C77.4493 37.9 78.058 37.6 78.6667 37.6C78.8696 37.6 79.5798 37.7 79.5798 37.6C79.6812 37.5 79.6812 37.5 79.5798 37.4C78.9711 37 78.4638 36.6 77.8551 36.3C77.7537 37 76.9421 37.4 76.5363 37.9C76.029 38.5 75.5218 39.2 75.5218 39.9C75.5218 40.6 75.9276 41.3 76.6377 41.6C77.3479 42 78.1595 41.7 78.8696 41.3C79.2754 41 79.6812 40.7 80.087 40.5C80.6957 40.2 81.6087 40.5 81.4058 41.3C81.2029 42 80.4928 42.6 79.7827 42.8C79.3769 42.9 78.9711 42.9 78.5653 42.7C78.2609 42.6 77.9566 42.2 77.7537 42.6L80.087 44.2C80.1885 43.7 80.3913 43.5 80.7971 43.2C81.3044 42.8 81.7102 42.3 82.116 41.8C82.9276 40.9 83.2319 39.3 82.0145 38.4ZM99.8696 10.3C99.8696 10.4 99.8696 10.4 99.8696 10.3L98.9566 11.3L98.145 12.3C97.9421 12.5 97.8406 12.6 98.145 12.8C98.6522 12.5 101.696 17.6 101.493 18.3C100.986 18.5 96.9276 15 96.8261 14.8C96.8261 14.7 97.029 14.1 96.7247 14.2C96.6232 14.2 96.2174 14.8 96.116 14.9L95.5073 15.6C95.7102 15.9 95.8116 15.6 96.116 15.6C96.3189 15.7 97.3334 16.5 97.6377 16.7C97.1305 16.7 95.9131 16.8 95.7102 16.8C95.1015 16.9 95.4058 16.4 95 16.2L93.4783 18L92.5653 19C92.5653 19 92.5653 19 92.5653 19.1C92.7682 19.3 92.6667 19.2 92.9711 19.1C93.2754 19 97.3334 22.3 97.4348 22.5C97.6377 22.8 97.3334 23.1 97.7392 23.3L98.9566 21.9C99.058 21.8 99.058 21.8 98.9566 21.8C98.6522 21.6 98.6522 21.9 98.2464 21.9C97.9421 21.8 95.3044 19.7 94.3913 18.9L99.7682 18.7C99.9711 18.7 100.478 19.3 100.478 19.5C100.377 19.7 100.174 19.9 100.478 20C100.783 19.6 101.087 19.3 101.391 18.9L101.493 18.7C101.594 18.7 101.594 18.6 101.594 18.5L101.696 18.4C102 18.1 102.913 17.1 102.812 17C102.507 16.7 102.406 17.3 102 17C101.797 16.8 101.188 15.8 101.087 15.6C100.884 15.3 101.493 15 101.696 14.9C102.203 14.6 103.826 14.1 104.029 15.1C104.029 15.3 103.826 15.5 103.928 15.6C103.928 15.6 104.029 15.8 104.13 15.7L106.261 13.1C106.159 13 106.159 13 106.058 12.9C105.551 13.4 100.478 11.4 100.174 11.1C100.073 10.9 100.073 10.3 99.8696 10.3ZM99.6667 12.9C100.478 13.2 101.188 13.5 102 13.9C101.797 14 101.594 14.1 101.391 14.2C101.188 14.3 100.986 14.5 100.783 14.7L99.6667 12.9ZM92.9711 20.6C91.8551 20.5 90.7392 21 89.9276 21.9C88.7102 23.4 88.8116 25.6 90.3334 26.8C91.8551 28 94.087 27.7 95.3044 26.3C96.5218 24.8 96.4203 22.6 94.8986 21.4C94.3913 21 93.6812 20.7 92.9711 20.6ZM91.5508 22.2C92.1595 22.2 92.8696 22.6 93.2754 22.9C94.087 23.4 95.5073 24.6 94.7971 25.6C94.7971 25.5 94.8986 25.5 94.6957 25.7C93.8841 26.5 92.4638 25.8 91.7537 25.2C91.0435 24.7 89.7247 23.5 90.5363 22.5C90.8406 22.3 91.145 22.2 91.5508 22.2ZM88.4058 26.5C87.1884 26.4 85.9711 27 85.058 28.1C84.4493 28.9 83.7392 29.6 83.1305 30.4C83.3334 30.7 83.6377 30.3 83.9421 30.5C84.2464 30.7 88.1015 33.8 88.1015 34C88.2029 34.3 87.8986 34.4 88.2029 34.6C88.3044 34.7 91.145 31.2 91.4493 30.6C91.8551 29.5 91.5508 28.2 90.6377 27.4C90.7392 27.5 90.8406 27.5 90.6377 27.4C89.8261 26.8 89.116 26.5 88.4058 26.5ZM87.2899 28.1C87.3913 28.1 87.4928 28.1 87.5942 28.1C89.0145 28.5 91.0435 30.2 89.7247 31.7C89.5218 31.9 89.7247 31.7 89.3189 32.1C89.116 32.3 85.058 29.1 85.2609 28.9C85.6667 28.4 86.5798 28 87.2899 28.1Z" fill="white"/>
</g>
</g>
<defs>
<filter id="filter0_d_106965_140" x="0" y="0" width="148" height="78" filterUnits="userSpaceOnUse" color-interpolation-filters="sRGB">
<feFlood flood-opacity="0" result="BackgroundImageFix"/>
<feColorMatrix in="SourceAlpha" type="matrix" values="0 0 0 0 0 0 0 0 0 0 0 0 0 0 0 0 0 0 127 0" result="hardAlpha"/>
<feOffset dy="4"/>
<feGaussianBlur stdDeviation="2"/>
<feComposite in2="hardAlpha" operator="out"/>
<feColorMatrix type="matrix" values="0 0 0 0 0 0 0 0 0 0 0 0 0 0 0 0 0 0 0.25 0"/>
<feBlend mode="normal" in2="BackgroundImageFix" result="effect1_dropShadow_106965_140"/>
<feBlend mode="normal" in="SourceGraphic" in2="effect1_dropShadow_106965_140" result="shape"/>
</filter>
<clipPath id="clip0_106965_140">
<rect width="140" height="70" fill="white" transform="translate(4)"/>
</clipPath>
</defs>
</svg>
